<svg id="icon" height="512" viewBox="0 0 128 128" width="512" xmlns="http://www.w3.org/2000/svg"><path d="m64.007 1a63 63 0 1 0 62.986 63 63 63 0 0 0 -62.986-63zm0 117.2a54.2 54.2 0 1 1 54.203-54.2 54.21 54.21 0 0 1 -54.203 54.2z" fill="#9297ab"/><path d="m64.007 128a64 64 0 1 1 63.986-64 64.073 64.073 0 0 1 -63.986 64zm0-126a62 62 0 1 0 61.986 62 62.07 62.07 0 0 0 -61.986-62zm0 117.2a55.2 55.2 0 1 1 55.203-55.2 55.272 55.272 0 0 1 -55.203 55.2zm0-108.405a53.2 53.2 0 1 0 53.203 53.205 53.27 53.27 0 0 0 -53.203-53.2z" fill="#2f3a5a"/><path d="m118.21 64a54.21 54.21 0 1 1 -54.2-54.2 54.207 54.207 0 0 1 54.2 54.2z" fill="#c1cdd3"/><path d="m64.007 119.2a55.2 55.2 0 1 1 55.203-55.2 55.272 55.272 0 0 1 -55.203 55.2zm0-108.405a53.2 53.2 0 1 0 53.203 53.205 53.27 53.27 0 0 0 -53.203-53.2z" fill="#2f3a5a"/><path d="m118.21 64a54.21 54.21 0 1 1 -54.2-54.2 54.207 54.207 0 0 1 54.2 54.2z" fill="#f0f5f9"/><path d="m118.21 64a54.2 54.2 0 0 1 -91.97 38.87 54.191 54.191 0 0 0 70.51-82.05 54.072 54.072 0 0 1 21.46 43.18z" fill="#e1e6e9"/><path d="m64.007 119.2a55.2 55.2 0 1 1 55.203-55.2 55.272 55.272 0 0 1 -55.203 55.2zm0-108.405a53.2 53.2 0 1 0 53.203 53.205 53.27 53.27 0 0 0 -53.203-53.2z" fill="#2f3a5a"/><path d="m95.056 64a31.056 31.056 0 1 1 -31.056-31.052 31.055 31.055 0 0 1 31.056 31.052z" fill="#d9e2e9"/><path d="m64 96.052a32.052 32.052 0 1 1 32.057-32.052 32.093 32.093 0 0 1 -32.057 32.052zm0-62.1a30.052 30.052 0 1 0 30.057 30.048 30.09 30.09 0 0 0 -30.057-30.052z" fill="#2f3a5a"/><path d="m53.808 53.808-20.86 41.244 41.244-20.86z" fill="#ef5361"/><path d="m32.948 96.052a1 1 0 0 1 -.893-1.451l20.86-41.244a1 1 0 0 1 1.6-.256l20.385 20.384a1 1 0 0 1 -.256 1.6l-41.244 20.86a1 1 0 0 1 -.452.107zm21.129-40.56-18.862 37.293 37.293-18.862z" fill="#2f3a5a"/><path d="m53.808 53.808 20.384 20.384 20.86-41.244z" fill="#81dafc"/><path d="m74.192 75.192a1 1 0 0 1 -.707-.293l-20.385-20.384a1 1 0 0 1 .256-1.6l41.244-20.86a1 1 0 0 1 1.345 1.345l-20.861 41.243a1 1 0 0 1 -.735.536.954.954 0 0 1 -.157.013zm-18.7-21.115 18.431 18.431 18.862-37.293z" fill="#2f3a5a"/><circle cx="64" cy="64" fill="#d9e2e9" r="8.807"/><g fill="#2f3a5a"><path d="m64 73.807a9.807 9.807 0 1 1 9.807-9.807 9.818 9.818 0 0 1 -9.807 9.807zm0-17.613a7.807 7.807 0 1 0 7.807 7.806 7.815 7.815 0 0 0 -7.807-7.807z"/><path d="m64 19.366a1 1 0 0 1 -1-1v-4.26a1 1 0 1 1 2 0v4.26a1 1 0 0 1 -1 1z"/><path d="m64 114.894a1 1 0 0 1 -1-1v-4.26a1 1 0 0 1 2 0v4.26a1 1 0 0 1 -1 1z"/><path d="m113.894 65h-4.26a1 1 0 0 1 0-2h4.26a1 1 0 1 1 0 2z"/><path d="m18.366 65h-4.26a1 1 0 1 1 0-2h4.26a1 1 0 1 1 0 2z"/></g></svg>